<svg id="animated-svg" class="animated-svg" xmlns="http://www.w3.org/2000/svg" width="1200" height="650" viewBox="0 0 1200 650" fill="none">
    <path d="M913.827 127C913.827 164.62 917.689 204.197 913.535 241.581C911.013 264.277 827.315 293.398 811.523 299.457C733.786 329.28 608.089 355.95 531.5 310.564C463.343 270.175 490.657 206.097 546.699 172.306C580.458 151.952 622.855 136.98 662.45 134.6C720.465 131.113 811.975 153.826 849.522 201.829C892.27 256.482 875.206 315.806 823.215 353.24C753.664 403.316 650.799 420.004 567.16 426.607C500.899 431.838 436.609 426.899 370.443 426.899C289.009 426.899 526.356 484.774 607.79 484.774C630.875 484.774 657.385 488.24 679.988 482.436C702.585 476.634 720.105 455.94 737.279 441.514C799.294 389.421 880.321 366.326 958.842 353.24C990.101 348.03 1046.18 337.489 1076.64 351.194C1095.36 359.619 1099.81 386.991 1083.95 400.592C1067.3 414.859 1046.01 418.833 1024.9 421.638C964.602 429.65 900.781 435.927 840.168 428.653C717.637 413.949 620.354 336.281 535.007 253.273C434.221 155.248 265.823 184.875 137.48 184.875C110.849 184.875 103.349 179.918 108.543 203.29C111.734 217.651 113.448 230.195 122.281 243.043C147.475 279.689 206.842 283.153 245.631 295.364C297.796 311.787 359.141 325.042 413.995 314.072C470.377 302.795 524.335 269.267 580.314 253.273C665.285 228.996 746.094 221.705 834.03 221.705C895.727 221.705 960.496 227.17 944.811 305.595C937.327 343.015 857.478 374.165 829.645 390.069C749.565 435.829 672.851 483.353 582.36 505.82C499.891 526.295 415.271 521.604 330.982 521.604C305.97 521.604 266.126 529.391 243.293 516.343C215.676 500.562 257.512 474.523 229.847 468.99" fill="none"/>

    <image opacity="0" id="animatedKey" class="animated-point-two" href="../images/key.png" width="100" height="100">
        <animateMotion
                repeatCount="indefinite"
                dur="4s"
                id="motion"
                begin="indefinite"
                path="M913.827 127C913.827 164.62 917.689 204.197 913.535 241.581C911.013 264.277 827.315 293.398 811.523 299.457C733.786 329.28 608.089 355.95 531.5 310.564C463.343 270.175 490.657 206.097 546.699 172.306C580.458 151.952 622.855 136.98 662.45 134.6C720.465 131.113 811.975 153.826 849.522 201.829C892.27 256.482 875.206 315.806 823.215 353.24C753.664 403.316 650.799 420.004 567.16 426.607C500.899 431.838 436.609 426.899 370.443 426.899C289.009 426.899 526.356 484.774 607.79 484.774C630.875 484.774 657.385 488.24 679.988 482.436C702.585 476.634 720.105 455.94 737.279 441.514C799.294 389.421 880.321 366.326 958.842 353.24C990.101 348.03 1046.18 337.489 1076.64 351.194C1095.36 359.619 1099.81 386.991 1083.95 400.592C1067.3 414.859 1046.01 418.833 1024.9 421.638C964.602 429.65 900.781 435.927 840.168 428.653C717.637 413.949 620.354 336.281 535.007 253.273C434.221 155.248 265.823 184.875 137.48 184.875C110.849 184.875 103.349 179.918 108.543 203.29C111.734 217.651 113.448 230.195 122.281 243.043C147.475 279.689 206.842 283.153 245.631 295.364C297.796 311.787 359.141 325.042 413.995 314.072C470.377 302.795 524.335 269.267 580.314 253.273C665.285 228.996 746.094 221.705 834.03 221.705C895.727 221.705 960.496 227.17 944.811 305.595C937.327 343.015 857.478 374.165 829.645 390.069C749.565 435.829 672.851 483.353 582.36 505.82C499.891 526.295 415.271 521.604 330.982 521.604C305.97 521.604 266.126 529.391 243.293 516.343C215.676 500.562 257.512 474.523 229.847 468.99"
                fill="freeze"
        />
        <animate attributeName="opacity" from="0" to="1" begin="motion.beginEvent"
                 dur="0.01s" fill="freeze"/>
    </image>
</svg>