<svg id="animated-svg" class="animated-svg" xmlns="http://www.w3.org/2000/svg" width="1200" height="650" viewBox="0 0 1200 650" fill="none">
    <path d="M124 321.811C208.01 329.448 307.446 369.429 392.156 347.137C413.889 341.418 417.043 306.841 415.993 288.291C413.738 248.464 353.419 239.161 323.628 242.854C268.668 249.667 178.916 297.913 160.499 355.33C149.444 389.798 220.471 396.705 240.946 400.768C306.006 413.677 383.579 416.086 442.808 382.146C450.513 377.731 501.869 348.349 483.032 331.494C467.823 317.886 430.882 332.001 420.462 344.902C401.952 367.819 400.375 413.06 407.054 440.991C416.119 478.9 480.959 486.05 510.592 489.409C574.897 496.696 662.679 500.193 716.179 455.889C779.897 403.122 730.389 267.836 667.017 236.15C647.615 226.449 637.815 232.599 640.201 253.282C644.238 288.266 756.915 269.193 776.886 254.399C858.637 193.843 726.678 125.675 673.721 121.438C628.823 117.847 594.763 131.25 583.963 178.049C575.653 214.06 575.711 251.432 611.896 270.787C663.7 298.496 740.128 297.615 795.881 284.567C824.536 277.86 859.305 253.008 815.248 237.639C737.497 210.517 659.154 182.969 580.611 158.31C532.839 143.312 466.993 121.322 416.365 138.198C395.273 145.229 385.453 162.889 385.453 184.008C385.453 198.048 390.344 201.226 395.881 186.988C430.521 97.9123 320.018 73.4556 252.119 97.9746C191.312 119.933 180.442 204.49 218.972 251.047C243.565 280.764 289.803 294.25 327.352 294.25C337.899 294.25 376.921 273.644 357.147 261.476C322.24 239.995 263.062 303.59 243.181 323.301C198.163 367.93 145.562 422.347 126.98 484.939C93.7629 596.827 374.126 566.095 421.207 554.958C467.141 544.092 548.441 519.705 570.183 470.787C575.634 458.521 577.303 431.107 564.968 422.369C551.802 413.043 550.395 427.468 554.54 437.267C566.903 466.49 625.702 462.79 649.885 462.593C716.953 462.048 854.807 422.808 861.43 336.708C862.759 319.44 1023.32 361.619 1046.16 362.034C1057.11 362.233 1075.96 364.767 1075.96 348.626C1075.96 328.054 1026.07 324.376 1012.64 321.811C949.429 309.737 824.979 293.852 771.3 338.943C756.864 351.069 710.351 398.99 741.505 419.018C786.794 448.132 870.092 451.955 921.393 439.129C1000.89 419.255 888.798 401.697 862.548 393.319C724.127 349.142 587.912 254.772 439.456 254.772C416.874 254.772 425.507 253.956 443.926 255.144C513.016 259.602 581.673 287.529 646.905 308.403C750.891 341.678 858.898 363.327 961.616 399.278C986.234 407.895 1003.64 426.886 1025.68 439.129C1048.27 451.679 1091.79 504.897 1042.44 462.593" fill="none"/>

    <image opacity="0" id="animatedKey" class="animated-point-two" href="../images/key.png" width="100" height="100">
        <animateMotion
                repeatCount="indefinite"
                dur="5s"
                id="motion"
                begin="indefinite"
                path="M124 321.811C208.01 329.448 307.446 369.429 392.156 347.137C413.889 341.418 417.043 306.841 415.993 288.291C413.738 248.464 353.419 239.161 323.628 242.854C268.668 249.667 178.916 297.913 160.499 355.33C149.444 389.798 220.471 396.705 240.946 400.768C306.006 413.677 383.579 416.086 442.808 382.146C450.513 377.731 501.869 348.349 483.032 331.494C467.823 317.886 430.882 332.001 420.462 344.902C401.952 367.819 400.375 413.06 407.054 440.991C416.119 478.9 480.959 486.05 510.592 489.409C574.897 496.696 662.679 500.193 716.179 455.889C779.897 403.122 730.389 267.836 667.017 236.15C647.615 226.449 637.815 232.599 640.201 253.282C644.238 288.266 756.915 269.193 776.886 254.399C858.637 193.843 726.678 125.675 673.721 121.438C628.823 117.847 594.763 131.25 583.963 178.049C575.653 214.06 575.711 251.432 611.896 270.787C663.7 298.496 740.128 297.615 795.881 284.567C824.536 277.86 859.305 253.008 815.248 237.639C737.497 210.517 659.154 182.969 580.611 158.31C532.839 143.312 466.993 121.322 416.365 138.198C395.273 145.229 385.453 162.889 385.453 184.008C385.453 198.048 390.344 201.226 395.881 186.988C430.521 97.9123 320.018 73.4556 252.119 97.9746C191.312 119.933 180.442 204.49 218.972 251.047C243.565 280.764 289.803 294.25 327.352 294.25C337.899 294.25 376.921 273.644 357.147 261.476C322.24 239.995 263.062 303.59 243.181 323.301C198.163 367.93 145.562 422.347 126.98 484.939C93.7629 596.827 374.126 566.095 421.207 554.958C467.141 544.092 548.441 519.705 570.183 470.787C575.634 458.521 577.303 431.107 564.968 422.369C551.802 413.043 550.395 427.468 554.54 437.267C566.903 466.49 625.702 462.79 649.885 462.593C716.953 462.048 854.807 422.808 861.43 336.708C862.759 319.44 1023.32 361.619 1046.16 362.034C1057.11 362.233 1075.96 364.767 1075.96 348.626C1075.96 328.054 1026.07 324.376 1012.64 321.811C949.429 309.737 824.979 293.852 771.3 338.943C756.864 351.069 710.351 398.99 741.505 419.018C786.794 448.132 870.092 451.955 921.393 439.129C1000.89 419.255 888.798 401.697 862.548 393.319C724.127 349.142 587.912 254.772 439.456 254.772C416.874 254.772 425.507 253.956 443.926 255.144C513.016 259.602 581.673 287.529 646.905 308.403C750.891 341.678 858.898 363.327 961.616 399.278C986.234 407.895 1003.64 426.886 1025.68 439.129C1048.27 451.679 1091.79 504.897 1042.44 462.593"
                fill="freeze"
        />
        <animate attributeName="opacity" from="0" to="1" begin="motion.beginEvent"
                 dur="0.01s" fill="freeze"/>
    </image>
</svg>