<svg id="animated-svg" class="animated-svg" xmlns="http://www.w3.org/2000/svg" width="1200" height="650" viewBox="0 0 1200 650" fill="none">
    <path d="M185.309 534.483C203.952 534.483 224.342 544.091 242.731 547.243C347.636 565.227 460.978 567.979 566.883 559.649C624.222 555.139 680.808 541.545 738.086 537.85C764.291 536.159 748.892 510.714 742.694 492.302C716.376 414.124 680.548 315.472 601.974 275.551C533.794 240.911 429.02 247.791 374.766 306.566C318.884 367.105 404.338 417.101 454.342 441.26C497.742 462.229 545.586 480.751 593.999 485.213C611.562 486.832 636.879 487.919 647.167 470.149C668.988 432.458 628.661 387.931 604.987 362.925C572.138 328.229 510.937 270.223 460.368 308.339C409.25 346.868 401.345 448.027 422.441 503.29C460.799 603.771 575.921 615.718 657.447 559.295C734.703 505.826 811.83 402.098 812.345 303.731C812.592 256.424 774.46 204.711 726.92 195.266C722.228 194.334 640.684 191.783 650.003 209.799C657.271 223.85 700.418 230.047 712.388 233.548C763.673 248.55 815.631 262.895 869.058 267.576C921.418 272.163 967.573 265.012 1017.58 252.511C1055.48 243.034 1046.04 298.28 1046.46 323.049C1047.87 405.235 1036.91 493.182 968.661 548.129C890.955 610.689 764.324 639.565 672.334 594.386C568.324 543.304 522.005 427.199 466.394 333.151C437.568 284.402 404.07 248.253 350.84 226.813C311.302 210.888 194.646 177.969 170.776 236.561C161.921 258.294 156.293 280.624 154.116 304.085C153.686 308.722 149.165 349.511 154.825 351.937C165.831 356.654 195.016 344.079 203.74 341.48C280.865 318.507 356.751 289.576 431.302 259.423C503.068 230.397 574.647 198.835 642.028 160.53C667.83 145.861 693.954 129.406 715.223 108.424C727.409 96.4027 722.81 82.6181 732.237 71.2062C761.316 36.0056 819.432 32.6612 860.905 34.3425C918.316 36.67 995.599 66.2508 995.599 135.717" fill="none"/>

    <image opacity="0" id="animatedKey" class="animated-point-two" href="../images/key.png" width="100" height="100">
        <animateMotion
                repeatCount="indefinite"
                dur="4s"
                id="motion"
                begin="indefinite"
                path="M185.309 534.483C203.952 534.483 224.342 544.091 242.731 547.243C347.636 565.227 460.978 567.979 566.883 559.649C624.222 555.139 680.808 541.545 738.086 537.85C764.291 536.159 748.892 510.714 742.694 492.302C716.376 414.124 680.548 315.472 601.974 275.551C533.794 240.911 429.02 247.791 374.766 306.566C318.884 367.105 404.338 417.101 454.342 441.26C497.742 462.229 545.586 480.751 593.999 485.213C611.562 486.832 636.879 487.919 647.167 470.149C668.988 432.458 628.661 387.931 604.987 362.925C572.138 328.229 510.937 270.223 460.368 308.339C409.25 346.868 401.345 448.027 422.441 503.29C460.799 603.771 575.921 615.718 657.447 559.295C734.703 505.826 811.83 402.098 812.345 303.731C812.592 256.424 774.46 204.711 726.92 195.266C722.228 194.334 640.684 191.783 650.003 209.799C657.271 223.85 700.418 230.047 712.388 233.548C763.673 248.55 815.631 262.895 869.058 267.576C921.418 272.163 967.573 265.012 1017.58 252.511C1055.48 243.034 1046.04 298.28 1046.46 323.049C1047.87 405.235 1036.91 493.182 968.661 548.129C890.955 610.689 764.324 639.565 672.334 594.386C568.324 543.304 522.005 427.199 466.394 333.151C437.568 284.402 404.07 248.253 350.84 226.813C311.302 210.888 194.646 177.969 170.776 236.561C161.921 258.294 156.293 280.624 154.116 304.085C153.686 308.722 149.165 349.511 154.825 351.937C165.831 356.654 195.016 344.079 203.74 341.48C280.865 318.507 356.751 289.576 431.302 259.423C503.068 230.397 574.647 198.835 642.028 160.53C667.83 145.861 693.954 129.406 715.223 108.424C727.409 96.4027 722.81 82.6181 732.237 71.2062C761.316 36.0056 819.432 32.6612 860.905 34.3425C918.316 36.67 995.599 66.2508 995.599 135.717"
                fill="freeze"
        />
        <animate attributeName="opacity" from="0" to="1" begin="motion.beginEvent"
                 dur="0.01s" fill="freeze"/>
    </image>
</svg>