<svg id="animated-svg" class="animated-svg" xmlns="http://www.w3.org/2000/svg" width="1200" height="650" viewBox="0 0 1200 650" fill="none">
    <path d="M149 454.861C149 427.521 156.863 402.075 175.979 380.355C197.909 355.437 224.633 334.34 251.965 314.817C311.295 272.436 376.261 229.4 445.394 201.677C469.934 191.837 475.043 192.479 498.981 192.479C525.17 192.479 556.084 191.997 581.402 198.918C606.005 205.644 624.002 217.299 640.804 235.711C668.647 266.222 693.772 309.487 693.772 350.575C693.772 378.659 670.507 405.708 645.26 419.218C611.94 437.047 571.292 446.128 533.88 452.792C471.096 463.974 384.646 475.694 333.396 429.566C307.491 406.25 275.973 379.875 275.973 344.021C275.973 288.433 332.365 240.727 376.586 209.726C418.967 180.015 466.582 160.756 516.43 144.648C566.963 128.318 622.855 126.891 675.703 124.756C730.38 122.548 786.583 115.764 841.288 120.847C869.303 123.45 895.385 134.165 916.284 151.776C970.099 197.124 988.31 255.704 988.805 321.485C988.986 345.473 990.211 363.308 973.707 383.114C943.389 419.497 906.34 447.294 864.059 470.958C814.192 498.869 758.558 519.172 700.702 526.378C657.735 531.73 609.887 534.568 567.789 522.699C533.88 513.139 505.538 495.956 486.11 467.969C479.521 458.476 467.996 442.977 479.675 433.705C559.093 370.651 646.183 324.094 752.927 322.52C799.893 321.828 846.912 322.405 893.884 322.405C929.587 322.405 957.636 326.114 984.474 349.77C1008.22 370.704 1018.67 413.184 1019.87 442.213C1020.76 463.8 1017.13 480.078 1008.98 500.278C1005.95 507.772 992.811 535.159 984.35 527.298" fill="none"/>

    <image opacity="0" id="animatedKey" class="animated-point-two" href="../images/key.png" width="100" height="100">
        <animateMotion
                repeatCount="indefinite"
                dur="4s"
                id="motion"
                begin="indefinite"
                path="M149 454.861C149 427.521 156.863 402.075 175.979 380.355C197.909 355.437 224.633 334.34 251.965 314.817C311.295 272.436 376.261 229.4 445.394 201.677C469.934 191.837 475.043 192.479 498.981 192.479C525.17 192.479 556.084 191.997 581.402 198.918C606.005 205.644 624.002 217.299 640.804 235.711C668.647 266.222 693.772 309.487 693.772 350.575C693.772 378.659 670.507 405.708 645.26 419.218C611.94 437.047 571.292 446.128 533.88 452.792C471.096 463.974 384.646 475.694 333.396 429.566C307.491 406.25 275.973 379.875 275.973 344.021C275.973 288.433 332.365 240.727 376.586 209.726C418.967 180.015 466.582 160.756 516.43 144.648C566.963 128.318 622.855 126.891 675.703 124.756C730.38 122.548 786.583 115.764 841.288 120.847C869.303 123.45 895.385 134.165 916.284 151.776C970.099 197.124 988.31 255.704 988.805 321.485C988.986 345.473 990.211 363.308 973.707 383.114C943.389 419.497 906.34 447.294 864.059 470.958C814.192 498.869 758.558 519.172 700.702 526.378C657.735 531.73 609.887 534.568 567.789 522.699C533.88 513.139 505.538 495.956 486.11 467.969C479.521 458.476 467.996 442.977 479.675 433.705C559.093 370.651 646.183 324.094 752.927 322.52C799.893 321.828 846.912 322.405 893.884 322.405C929.587 322.405 957.636 326.114 984.474 349.77C1008.22 370.704 1018.67 413.184 1019.87 442.213C1020.76 463.8 1017.13 480.078 1008.98 500.278C1005.95 507.772 992.811 535.159 984.35 527.298"
                fill="freeze"
        />
        <animate attributeName="opacity" from="0" to="1" begin="motion.beginEvent"
                 dur="0.01s" fill="freeze"/>
<!--        <animate attributeName="opacity" from="1" to="0" begin="motion.endEvent"-->
<!--                 dur="0.0001s" fill="freeze"/>-->
    </image>
<!--    <circle class="animated-point" r="5" fill="red">-->
<!--        <animateMotion-->
<!--                repeatCount="1"-->
<!--                dur="5s"-->
<!--                id="motion"-->
<!--                begin="indefinite"-->
<!--                path="M2.27429 355.182C2.27429 326.456 9.95025 299.718 28.6109 276.897C50.0193 250.715 76.1076 228.548 102.788 208.035C160.707 163.505 224.127 118.287 291.615 89.1581C315.57 78.8188 320.557 79.4932 343.925 79.4932C369.491 79.4932 399.669 78.9863 424.385 86.2586C448.402 93.3255 465.972 105.572 482.374 124.918C509.553 156.976 534.08 202.435 534.08 245.607C534.08 275.115 511.369 303.536 486.723 317.731C454.196 336.464 414.515 346.006 377.994 353.007C316.704 364.757 232.312 377.071 182.281 328.604C156.993 304.106 126.225 276.393 126.225 238.721C126.225 180.313 181.275 130.188 224.444 97.6148C265.816 66.3975 312.298 46.1619 360.96 29.2362C410.289 12.0781 464.851 10.5792 516.442 8.33609C569.818 6.01542 624.683 -1.11178 678.086 4.22855C705.434 6.96331 730.895 18.2222 751.297 36.7265C803.831 84.3738 821.608 145.925 822.092 215.042C822.268 240.246 823.464 258.986 807.353 279.796C777.757 318.025 741.59 347.231 700.315 372.095C651.634 401.421 597.325 422.754 540.846 430.326C498.901 435.949 452.192 438.469 413.988 424.131C354.337 397.802 272.069 347.099 247.845 287.596C237.929 257.938 270.493 226.621 268.812 206.08C267.696 190.903 245.748 180.337 238.547 165.004C226.403 137.908 231.182 116.761 249.07 90.3399C267.703 64.1094 363.252 11.9382 532.554 0.5"-->
<!--        />-->
<!--    </circle>-->
</svg>