<svg id="animated-svg" class="animated-svg" xmlns="http://www.w3.org/2000/svg" width="1200" height="650" viewBox="0 0 1200 650" fill="none">
    <path d="M346.093 446.885C328.481 446.885 320.471 437.663 312.419 427.859C291.259 402.099 283.794 372.759 281.226 343.77C276.85 294.356 279.256 239.541 310.292 193.677C394.135 69.7745 654.801 40.8975 830.997 83.3972C898.282 99.6267 959.119 127.873 982.353 174.651C1012.26 234.857 1002 298.49 969.592 356.923C940.325 409.699 897.599 461.318 835.96 500.674C773.837 540.34 692.628 561.888 609.281 573.372C487.097 590.207 346.919 592.095 245.248 537.904C208.466 518.299 184.686 491.382 153.442 468.377C150.246 466.024 127.788 454.505 132.706 465.911C136.248 474.125 164.438 476.789 174.887 476.481C186.558 476.137 178.192 465.983 175.419 462.74C150.837 433.994 128.561 408.509 112.148 376.654C20.3596 198.506 165.353 474.957 71.3844 293.269C59.9398 271.141 44.2558 250.203 32.748 228.205C21.112 205.963 148.875 197.134 162.836 195.556C204.357 190.862 266.163 185.988 307.811 184.986C398.549 182.803 507.086 181.654 589.431 211.528C659.77 237.046 688.651 264.613 699.846 317.227C712.721 377.733 672.824 425.67 604.141 462.153C546.724 492.652 478.352 514.134 419.467 543.541C413.703 546.42 391.998 554.616 394.654 561.51C399.279 573.513 436.649 577.683 450.128 579.949C500.115 588.354 553.779 592.611 605.205 588.287C689.752 581.18 749.435 548.175 803.172 506.077C857.457 463.551 893.663 418.336 908.625 363.5C919.817 322.478 925.337 275.834 903.662 235.839C884.663 200.78 841.058 179.407 787.753 170.188C734.179 160.923 676.064 161.242 621.156 161.967C559.955 162.775 498.001 165.556 441.798 182.989C409.037 193.151 377.862 207.057 357.081 227.031C333.068 250.111 327.741 278.106 323.23 305.366C320.684 320.75 316.273 338.732 325.18 353.987C344.231 386.617 419.003 395.995 462.002 401.082C517.544 407.653 590.268 409.721 647.031 408.599C678.365 407.979 710.122 407.416 735.824 395.21C761.756 382.895 791.961 379.457 823.199 377.594C877.002 374.384 932.898 373.505 986.429 378.885C1044.17 384.69 1121.58 397.667 1148.06 436.668C1163.71 459.712 1170.28 494.3 1165.43 519.465C1158.44 555.766 1054.4 548.248 1019.93 545.186C857.476 530.752 773.939 430.825 740.964 333.2C729.174 298.294 726.077 262.692 726.077 227.031C726.077 203.593 725.691 178.894 735.293 156.095C744.056 135.285 765.769 132.902 794.842 131.432C849.747 128.654 934.458 108.86 941.944 162.437C945.09 184.95 941.735 206.478 933.083 228.205C932.637 229.324 927.756 238.563 929.184 238.305C941.69 236.045 953.335 235.548 966.402 235.487C1007.66 235.294 1048.2 236.197 1088.69 241.829C1095.6 242.789 1112.9 246.83 1111.73 246.057" fill="none"/>

    <image opacity="0" id="animatedKey" class="animated-point-two" href="../../images/key.png" width="100" height="100">
        <animateMotion
                repeatCount="indefinite"
                dur="7s"
                id="motion"
                begin="indefinite"
                path="M346.093 446.885C328.481 446.885 320.471 437.663 312.419 427.859C291.259 402.099 283.794 372.759 281.226 343.77C276.85 294.356 279.256 239.541 310.292 193.677C394.135 69.7745 654.801 40.8975 830.997 83.3972C898.282 99.6267 959.119 127.873 982.353 174.651C1012.26 234.857 1002 298.49 969.592 356.923C940.325 409.699 897.599 461.318 835.96 500.674C773.837 540.34 692.628 561.888 609.281 573.372C487.097 590.207 346.919 592.095 245.248 537.904C208.466 518.299 184.686 491.382 153.442 468.377C150.246 466.024 127.788 454.505 132.706 465.911C136.248 474.125 164.438 476.789 174.887 476.481C186.558 476.137 178.192 465.983 175.419 462.74C150.837 433.994 128.561 408.509 112.148 376.654C20.3596 198.506 165.353 474.957 71.3844 293.269C59.9398 271.141 44.2558 250.203 32.748 228.205C21.112 205.963 148.875 197.134 162.836 195.556C204.357 190.862 266.163 185.988 307.811 184.986C398.549 182.803 507.086 181.654 589.431 211.528C659.77 237.046 688.651 264.613 699.846 317.227C712.721 377.733 672.824 425.67 604.141 462.153C546.724 492.652 478.352 514.134 419.467 543.541C413.703 546.42 391.998 554.616 394.654 561.51C399.279 573.513 436.649 577.683 450.128 579.949C500.115 588.354 553.779 592.611 605.205 588.287C689.752 581.18 749.435 548.175 803.172 506.077C857.457 463.551 893.663 418.336 908.625 363.5C919.817 322.478 925.337 275.834 903.662 235.839C884.663 200.78 841.058 179.407 787.753 170.188C734.179 160.923 676.064 161.242 621.156 161.967C559.955 162.775 498.001 165.556 441.798 182.989C409.037 193.151 377.862 207.057 357.081 227.031C333.068 250.111 327.741 278.106 323.23 305.366C320.684 320.75 316.273 338.732 325.18 353.987C344.231 386.617 419.003 395.995 462.002 401.082C517.544 407.653 590.268 409.721 647.031 408.599C678.365 407.979 710.122 407.416 735.824 395.21C761.756 382.895 791.961 379.457 823.199 377.594C877.002 374.384 932.898 373.505 986.429 378.885C1044.17 384.69 1121.58 397.667 1148.06 436.668C1163.71 459.712 1170.28 494.3 1165.43 519.465C1158.44 555.766 1054.4 548.248 1019.93 545.186C857.476 530.752 773.939 430.825 740.964 333.2C729.174 298.294 726.077 262.692 726.077 227.031C726.077 203.593 725.691 178.894 735.293 156.095C744.056 135.285 765.769 132.902 794.842 131.432C849.747 128.654 934.458 108.86 941.944 162.437C945.09 184.95 941.735 206.478 933.083 228.205C932.637 229.324 927.756 238.563 929.184 238.305C941.69 236.045 953.335 235.548 966.402 235.487C1007.66 235.294 1048.2 236.197 1088.69 241.829C1095.6 242.789 1112.9 246.83 1111.73 246.057"
                fill="freeze"
        />
        <animate attributeName="opacity" from="0" to="1" begin="motion.beginEvent"
                 dur="0.01s" fill="freeze"/>
    </image>
</svg>