<svg id="animated-svg" class="animated-svg" xmlns="http://www.w3.org/2000/svg" width="1200" height="650" viewBox="0 0 1200 650" fill="none">
    <path d="M164 455.16C164 427.82 171.863 402.373 190.979 380.653C212.909 355.735 391.586 500.577 266.965 315.115C326.295 272.735 882.867 199.78 952 172.058C976.539 162.217 453.336 132.56 477.274 132.56C503.463 132.56 571.084 192.295 596.402 199.216C621.005 205.942 443.592 304.407 460.395 322.819C488.237 353.33 708.772 309.785 708.772 350.874C708.772 378.958 685.507 406.006 660.26 419.516C626.94 437.346 586.291 446.427 548.88 453.09C486.096 464.273 399.646 475.992 348.396 429.864C322.491 406.549 290.973 380.174 290.973 344.32C290.973 288.732 347.364 241.026 391.586 210.024C433.967 180.314 579.652 283.92 629.5 267.811C680.032 251.481 735.925 250.054 788.773 247.919C843.45 245.711 801.583 116.063 856.288 121.146C884.303 123.748 910.385 134.464 931.284 152.075C985.099 197.423 1003.31 256.003 1003.8 321.784C1003.99 345.772 1005.21 363.606 988.707 383.413C958.389 419.796 921.34 447.593 879.059 471.257C829.192 499.167 1009.86 319.011 952 326.217C909.033 331.569 861.185 334.406 819.087 322.538C767.927 453.09 520.538 496.255 501.11 468.267C494.521 458.775 482.996 443.276 494.675 434.004C574.093 370.95 661.183 324.393 767.927 322.819C814.893 322.126 861.912 322.704 908.884 322.704C944.587 322.704 972.636 326.413 999.474 350.069C1023.22 371.003 1033.67 413.483 1034.87 442.512C1035.76 464.099 1032.13 480.376 1023.98 500.577C1020.95 508.07 1007.81 535.458 999.35 527.597" fill="none"/>

    <image opacity="0" id="animatedKey" class="animated-point-two" href="../../images/key.png" width="100" height="100">
        <animateMotion
                repeatCount="indefinite"
                dur="5s"
                id="motion"
                begin="indefinite"
                path="M164 455.16C164 427.82 171.863 402.373 190.979 380.653C212.909 355.735 391.586 500.577 266.965 315.115C326.295 272.735 882.867 199.78 952 172.058C976.539 162.217 453.336 132.56 477.274 132.56C503.463 132.56 571.084 192.295 596.402 199.216C621.005 205.942 443.592 304.407 460.395 322.819C488.237 353.33 708.772 309.785 708.772 350.874C708.772 378.958 685.507 406.006 660.26 419.516C626.94 437.346 586.291 446.427 548.88 453.09C486.096 464.273 399.646 475.992 348.396 429.864C322.491 406.549 290.973 380.174 290.973 344.32C290.973 288.732 347.364 241.026 391.586 210.024C433.967 180.314 579.652 283.92 629.5 267.811C680.032 251.481 735.925 250.054 788.773 247.919C843.45 245.711 801.583 116.063 856.288 121.146C884.303 123.748 910.385 134.464 931.284 152.075C985.099 197.423 1003.31 256.003 1003.8 321.784C1003.99 345.772 1005.21 363.606 988.707 383.413C958.389 419.796 921.34 447.593 879.059 471.257C829.192 499.167 1009.86 319.011 952 326.217C909.033 331.569 861.185 334.406 819.087 322.538C767.927 453.09 520.538 496.255 501.11 468.267C494.521 458.775 482.996 443.276 494.675 434.004C574.093 370.95 661.183 324.393 767.927 322.819C814.893 322.126 861.912 322.704 908.884 322.704C944.587 322.704 972.636 326.413 999.474 350.069C1023.22 371.003 1033.67 413.483 1034.87 442.512C1035.76 464.099 1032.13 480.376 1023.98 500.577C1020.95 508.07 1007.81 535.458 999.35 527.597"
                fill="freeze"
        />
        <animate attributeName="opacity" from="0" to="1" begin="motion.beginEvent"
                 dur="0.01s" fill="freeze"/>
<!--        <animate attributeName="opacity" from="1" to="0" begin="motion.endEvent"-->
<!--                 dur="0.0001s" fill="freeze"/>-->
    </image>
<!--    <circle class="animated-point" r="5" fill="red">-->
<!--        <animateMotion-->
<!--                repeatCount="1"-->
<!--                dur="5s"-->
<!--                id="motion"-->
<!--                begin="indefinite"-->
<!--                path="M2.27429 355.182C2.27429 326.456 9.95025 299.718 28.6109 276.897C50.0193 250.715 76.1076 228.548 102.788 208.035C160.707 163.505 224.127 118.287 291.615 89.1581C315.57 78.8188 320.557 79.4932 343.925 79.4932C369.491 79.4932 399.669 78.9863 424.385 86.2586C448.402 93.3255 465.972 105.572 482.374 124.918C509.553 156.976 534.08 202.435 534.08 245.607C534.08 275.115 511.369 303.536 486.723 317.731C454.196 336.464 414.515 346.006 377.994 353.007C316.704 364.757 232.312 377.071 182.281 328.604C156.993 304.106 126.225 276.393 126.225 238.721C126.225 180.313 181.275 130.188 224.444 97.6148C265.816 66.3975 312.298 46.1619 360.96 29.2362C410.289 12.0781 464.851 10.5792 516.442 8.33609C569.818 6.01542 624.683 -1.11178 678.086 4.22855C705.434 6.96331 730.895 18.2222 751.297 36.7265C803.831 84.3738 821.608 145.925 822.092 215.042C822.268 240.246 823.464 258.986 807.353 279.796C777.757 318.025 741.59 347.231 700.315 372.095C651.634 401.421 597.325 422.754 540.846 430.326C498.901 435.949 452.192 438.469 413.988 424.131C354.337 397.802 272.069 347.099 247.845 287.596C237.929 257.938 270.493 226.621 268.812 206.08C267.696 190.903 245.748 180.337 238.547 165.004C226.403 137.908 231.182 116.761 249.07 90.3399C267.703 64.1094 363.252 11.9382 532.554 0.5"-->
<!--        />-->
<!--    </circle>-->
</svg>