<svg id="animated-svg-one" xmlns="http://www.w3.org/2000/svg" width="1200" height="650" viewBox="0 0 1200 650" fill="none">
    <path d="M962.173 173.93C949.689 173.93 904.558 166.494 896.624 175.42C888.967 184.035 963.564 246.074 970.367 251.398C986.918 264.351 1058.87 286.812 1047.83 319.927C1027.65 380.475 869.006 376.713 822.881 363.874C790.878 354.966 766.935 329.972 751.372 301.677C749.049 297.453 736.209 271.719 737.22 272.254C781.097 295.484 812.598 357.856 842.993 395.159C856.358 411.563 940.774 485.618 927.164 509.126C914.412 531.152 849.926 522.772 830.702 522.161C772.363 520.309 718.28 505.489 668.691 474.117C664.251 471.308 568.88 383.161 608.356 381.752C681.89 379.125 758.519 377.656 831.819 383.241C845.57 384.289 961.436 407.694 962.173 395.159C966.507 321.486 902.113 257.784 840.013 229.051C768.537 195.98 652.304 176.058 571.857 188.828C524.595 196.33 472.284 225.156 452.676 269.275C423.497 334.927 329.055 355.383 264.966 363.13C224.569 368.013 151 401.123 151 341.901C151 290.815 188.217 294.601 232.937 294.601C328.221 294.601 416.372 299.36 442.248 405.215C446.25 421.587 453 522.534 475.395 522.534C494.167 522.534 437.308 524.344 419.156 519.554C382.663 509.924 353.645 478.967 339.454 445.066C323.092 405.979 307.087 345.64 325.302 304.657C335.826 280.976 411.346 276.04 432.564 274.861C485.477 271.922 514.228 265.77 530.143 318.064C546.044 370.31 546.531 430.589 546.531 485.29C546.531 549.071 568.074 475.398 576.326 452.143C605.738 369.253 589.676 263.641 566.643 181.379C551.226 126.322 531.219 78.7953 479.864 49.9079C444.285 29.8949 467.439 42.5985 472.788 66.6677C482.332 109.617 486.12 147.191 453.048 180.262C430.504 202.807 406.141 193.227 380.05 204.098C376.488 205.582 424.096 200.947 434.054 200.746C513.276 199.146 592.373 195.014 671.67 193.67C702.49 193.147 859.289 160.251 875.022 207.45" fill="none"/>

    <image opacity="0" id="animatedKey" class="animated-point" href="../images/harry-potter.png" width="100" height="100">
        <animateMotion
                repeatCount="1"
                dur="3s"
                id="motion"
                begin="indefinite"
                path="M962.173 173.93C949.689 173.93 904.558 166.494 896.624 175.42C888.967 184.035 963.564 246.074 970.367 251.398C986.918 264.351 1058.87 286.812 1047.83 319.927C1027.65 380.475 869.006 376.713 822.881 363.874C790.878 354.966 766.935 329.972 751.372 301.677C749.049 297.453 736.209 271.719 737.22 272.254C781.097 295.484 812.598 357.856 842.993 395.159C856.358 411.563 940.774 485.618 927.164 509.126C914.412 531.152 849.926 522.772 830.702 522.161C772.363 520.309 718.28 505.489 668.691 474.117C664.251 471.308 568.88 383.161 608.356 381.752C681.89 379.125 758.519 377.656 831.819 383.241C845.57 384.289 961.436 407.694 962.173 395.159C966.507 321.486 902.113 257.784 840.013 229.051C768.537 195.98 652.304 176.058 571.857 188.828C524.595 196.33 472.284 225.156 452.676 269.275C423.497 334.927 329.055 355.383 264.966 363.13C224.569 368.013 151 401.123 151 341.901C151 290.815 188.217 294.601 232.937 294.601C328.221 294.601 416.372 299.36 442.248 405.215C446.25 421.587 453 522.534 475.395 522.534C494.167 522.534 437.308 524.344 419.156 519.554C382.663 509.924 353.645 478.967 339.454 445.066C323.092 405.979 307.087 345.64 325.302 304.657C335.826 280.976 411.346 276.04 432.564 274.861C485.477 271.922 514.228 265.77 530.143 318.064C546.044 370.31 546.531 430.589 546.531 485.29C546.531 549.071 568.074 475.398 576.326 452.143C605.738 369.253 589.676 263.641 566.643 181.379C551.226 126.322 531.219 78.7953 479.864 49.9079C444.285 29.8949 467.439 42.5985 472.788 66.6677C482.332 109.617 486.12 147.191 453.048 180.262C430.504 202.807 406.141 193.227 380.05 204.098C376.488 205.582 424.096 200.947 434.054 200.746C513.276 199.146 592.373 195.014 671.67 193.67C702.49 193.147 859.289 160.251 875.022 207.45"
                fill="freeze"
        />
        <animate attributeName="opacity" from="0" to="1" begin="motion.beginEvent"
                 dur="0.01s" fill="freeze"/>
    </image>
</svg>