<svg id="animated-svg-one" xmlns="http://www.w3.org/2000/svg" width="1200" height="650" viewBox="0 0 1200 650" fill="none">
    <path d="M149 454.861C149 427.521 156.863 402.075 175.979 380.355C197.909 355.437 224.633 334.34 251.965 314.817C311.295 272.436 376.261 229.4 445.394 201.677C469.934 191.837 475.043 192.479 498.981 192.479C525.17 192.479 556.084 191.997 581.402 198.918C606.005 205.644 624.002 217.299 640.804 235.711C668.647 266.222 693.772 309.487 693.772 350.575C693.772 378.659 670.507 405.708 645.26 419.218C611.94 437.047 571.292 446.128 533.88 452.792C471.096 463.974 384.646 475.694 333.396 429.566C307.491 406.25 275.973 379.875 275.973 344.021C275.973 288.433 332.365 240.727 376.586 209.726C418.967 180.015 466.582 160.756 516.43 144.648C566.963 128.318 622.855 126.891 675.703 124.756C730.38 122.548 786.583 115.764 841.288 120.847C869.303 123.45 895.385 134.165 916.284 151.776C970.099 197.124 988.31 255.704 988.805 321.485C988.986 345.473 990.211 363.308 973.707 383.114C943.389 419.497 906.34 447.294 864.059 470.958C814.192 498.869 758.558 519.172 700.702 526.378C657.735 531.73 609.887 534.568 567.789 522.699C533.88 513.139 505.538 495.956 486.11 467.969C479.521 458.476 467.996 442.977 479.675 433.705C559.093 370.651 646.183 324.094 752.927 322.52C799.893 321.828 846.912 322.405 893.884 322.405C929.587 322.405 957.636 326.114 984.474 349.77C1008.22 370.704 1018.67 413.184 1019.87 442.213C1020.76 463.8 1017.13 480.078 1008.98 500.278C1005.95 507.772 992.811 535.159 984.35 527.298" fill="none"/>

    <image opacity="0" class="animated-point" href="../../images/harry-potter.png" width="180" height="180">
        <animateMotion
                repeatCount="1"
                dur="8s"
                id="motion"
                begin="indefinite"
                path="M149 454.861C149 427.521 156.863 402.075 175.979 380.355C197.909 355.437 224.633 334.34 251.965 314.817C311.295 272.436 376.261 229.4 445.394 201.677C469.934 191.837 475.043 192.479 498.981 192.479C525.17 192.479 556.084 191.997 581.402 198.918C606.005 205.644 624.002 217.299 640.804 235.711C668.647 266.222 693.772 309.487 693.772 350.575C693.772 378.659 670.507 405.708 645.26 419.218C611.94 437.047 571.292 446.128 533.88 452.792C471.096 463.974 384.646 475.694 333.396 429.566C307.491 406.25 275.973 379.875 275.973 344.021C275.973 288.433 332.365 240.727 376.586 209.726C418.967 180.015 466.582 160.756 516.43 144.648C566.963 128.318 622.855 126.891 675.703 124.756C730.38 122.548 786.583 115.764 841.288 120.847C869.303 123.45 895.385 134.165 916.284 151.776C970.099 197.124 988.31 255.704 988.805 321.485C988.986 345.473 990.211 363.308 973.707 383.114C943.389 419.497 906.34 447.294 864.059 470.958C814.192 498.869 758.558 519.172 700.702 526.378C657.735 531.73 609.887 534.568 567.789 522.699C533.88 513.139 505.538 495.956 486.11 467.969C479.521 458.476 467.996 442.977 479.675 433.705C559.093 370.651 646.183 324.094 752.927 322.52C799.893 321.828 846.912 322.405 893.884 322.405C929.587 322.405 957.636 326.114 984.474 349.77C1008.22 370.704 1018.67 413.184 1019.87 442.213C1020.76 463.8 1017.13 480.078 1008.98 500.278C1005.95 507.772 992.811 535.159 984.35 527.298"
                fill="freeze"
        />
        <animate attributeName="opacity" from="0" to="1" begin="motion.beginEvent"
                 dur="0.01s" fill="freeze"/>
    </image>
</svg>