<svg id="animated-svg-one" xmlns="http://www.w3.org/2000/svg" width="1200" height="650" viewBox="0 0 1200 650" fill="none">
    <path xmlns="http://www.w3.org/2000/svg" d="M187.466 540.452C187.466 518.168 181.205 486.429 188.635 465.623C208.966 408.698 288.096 412.72 335.37 414.471C362.65 415.481 484.553 441.704 461.058 493.1C437.099 545.51 352.215 528.775 314.032 500.699C274.5 471.632 269.225 428.917 288.602 386.703C316.618 325.667 379.286 286.247 445.567 291.121C500.395 295.152 585.34 346.525 570.378 415.348C564.871 440.68 529.371 453.433 508.411 461.531C467.366 477.389 424.13 475.448 388.276 448.085C358.55 425.4 322.513 350.087 351.446 313.92C402.674 249.886 514.11 211.433 592.593 204.892C677.601 197.808 730.859 233.246 747.512 318.889C751.162 337.659 756.641 358.837 733.481 363.903C686.433 374.195 631.016 367.143 583.24 366.826C511.409 366.35 407.298 342.336 440.89 247.86C474.33 153.81 559.913 107.953 655.73 109.018C735.383 109.903 812.224 162.567 862.97 222.138C900.897 266.661 882.989 323.28 859.755 369.749C827.525 434.208 745.882 472.323 683.206 419.44C622.491 368.212 649.701 252.179 701.036 204.6C747.835 161.226 860.745 115.935 924.061 147.017C986.314 177.578 997.72 261.139 997.72 321.52C997.72 344.724 986.793 351.839 965.567 361.272C923.253 380.079 871.846 394.219 825.848 397.225C756.494 401.758 684.477 400.084 625.331 359.226C572.658 322.841 544.958 270.94 506.073 222.723C448.44 151.258 303.172 139.949 264.049 240.553C243.041 294.572 334.398 326.061 369.276 334.966C464.299 359.227 560.319 339.91 654.561 324.735C756.181 308.372 956.835 264.539 1012.34 387.872C1016.13 396.303 1017.52 432.286 1005.61 434.932C967.558 443.388 930.642 440.931 892.492 455.101C841.545 474.024 785.445 481.055 732.02 490.177C701.956 495.309 641.202 511.475 613.639 493.1" fill="none"/>
    <image opacity="0" id="animatedKey" class="animated-point" href="../images/harry-potter.png" width="100" height="100">
        <animateMotion
                repeatCount="1"
                dur="6s"
                id="motion"
                begin="indefinite"
                path="M187.466 540.452C187.466 518.168 181.205 486.429 188.635 465.623C208.966 408.698 288.096 412.72 335.37 414.471C362.65 415.481 484.553 441.704 461.058 493.1C437.099 545.51 352.215 528.775 314.032 500.699C274.5 471.632 269.225 428.917 288.602 386.703C316.618 325.667 379.286 286.247 445.567 291.121C500.395 295.152 585.34 346.525 570.378 415.348C564.871 440.68 529.371 453.433 508.411 461.531C467.366 477.389 424.13 475.448 388.276 448.085C358.55 425.4 322.513 350.087 351.446 313.92C402.674 249.886 514.11 211.433 592.593 204.892C677.601 197.808 730.859 233.246 747.512 318.889C751.162 337.659 756.641 358.837 733.481 363.903C686.433 374.195 631.016 367.143 583.24 366.826C511.409 366.35 407.298 342.336 440.89 247.86C474.33 153.81 559.913 107.953 655.73 109.018C735.383 109.903 812.224 162.567 862.97 222.138C900.897 266.661 882.989 323.28 859.755 369.749C827.525 434.208 745.882 472.323 683.206 419.44C622.491 368.212 649.701 252.179 701.036 204.6C747.835 161.226 860.745 115.935 924.061 147.017C986.314 177.578 997.72 261.139 997.72 321.52C997.72 344.724 986.793 351.839 965.567 361.272C923.253 380.079 871.846 394.219 825.848 397.225C756.494 401.758 684.477 400.084 625.331 359.226C572.658 322.841 544.958 270.94 506.073 222.723C448.44 151.258 303.172 139.949 264.049 240.553C243.041 294.572 334.398 326.061 369.276 334.966C464.299 359.227 560.319 339.91 654.561 324.735C756.181 308.372 956.835 264.539 1012.34 387.872C1016.13 396.303 1017.52 432.286 1005.61 434.932C967.558 443.388 930.642 440.931 892.492 455.101C841.545 474.024 785.445 481.055 732.02 490.177C701.956 495.309 641.202 511.475 613.639 493.1"
                fill="freeze"
        />
        <animate attributeName="opacity" from="0" to="1" begin="motion.beginEvent"
                 dur="0.01s" fill="freeze"/>
    </image>
</svg>