<svg id="animated-svg-one" xmlns="http://www.w3.org/2000/svg" width="1200" height="650" viewBox="0 0 1200 650" fill="none">
    <path xmlns="http://www.w3.org/2000/svg" d="M187.466 540.452C187.466 518.168 181.205 486.429 188.635 465.623C208.966 408.698 288.096 412.72 335.37 414.471C362.65 415.481 484.553 441.704 461.058 493.1C437.099 545.51 352.215 528.775 314.032 500.699C274.5 471.632 269.225 428.917 288.602 386.703C316.618 325.667 379.286 286.247 445.567 291.121C500.395 295.152 585.34 346.525 570.378 415.348C564.871 440.68 529.371 453.433 508.411 461.531C467.366 477.389 424.13 475.448 388.276 448.085C358.55 425.4 322.513 350.087 351.446 313.92C402.674 249.886 514.11 211.433 592.593 204.892C677.601 197.808 730.859 233.246 747.512 318.889C751.162 337.659 756.641 358.837 733.481 363.903C686.433 374.195 631.016 367.143 583.24 366.826C511.409 366.35 407.298 342.336 440.89 247.86C474.33 153.81 559.913 107.953 655.73 109.018C735.383 109.903 812.224 162.567 862.97 222.138C900.897 266.661 882.989 323.28 859.755 369.749C827.525 434.208 745.882 472.323 683.206 419.44C622.491 368.212 649.701 252.179 701.036 204.6C747.835 161.226 860.745 115.935 924.061 147.017C986.314 177.578 997.72 261.139 997.72 321.52C997.72 344.724 986.793 351.839 965.567 361.272C923.253 380.079 871.846 394.219 825.848 397.225C756.494 401.758 684.477 400.084 625.331 359.226C572.658 322.841 544.958 270.94 506.073 222.723C448.44 151.258 303.172 139.949 264.049 240.553C243.041 294.572 334.398 326.061 369.276 334.966C464.299 359.227 560.319 339.91 654.561 324.735C756.181 308.372 956.835 264.539 1012.34 387.872C1016.13 396.303 1017.52 432.286 1005.61 434.932C967.558 443.388 930.642 440.931 892.492 455.101C841.545 474.024 785.445 481.055 732.02 490.177C701.956 495.309 641.202 511.475 613.639 493.1" fill="none"/>
    <image opacity="0" id="animatedKey" class="animated-point" href="../../images/harry-potter.png" width="100" height="100">
        <animateMotion
                repeatCount="1"
                dur="6s"
                id="motion"
                begin="indefinite"
                path="M187.466 540.452C187.466 518.168 181.205 486.429 188.635 465.623C208.966 408.698 288.096 412.72 335.37 414.471C362.65 415.481 484.553 441.704 461.058 493.1C437.099 545.51 352.215 528.775 314.032 500.699C274.5 471.632 269.225 428.917 288.602 386.703C316.618 325.667 379.286 286.247 445.567 291.121C500.395 295.152 585.34 346.525 570.378 415.348C564.871 440.68 529.371 453.433 508.411 461.531C467.366 477.389 424.13 475.448 388.276 448.085C358.55 425.4 322.513 350.087 351.446 313.92C402.674 249.886 514.11 211.433 592.593 204.892C677.601 197.808 730.859 233.246 747.512 318.889C751.162 337.659 756.641 358.837 733.481 363.903C686.433 374.195 631.016 367.143 583.24 366.826C511.409 366.35 407.298 342.336 440.89 247.86C474.33 153.81 559.913 107.953 655.73 109.018C735.383 109.903 812.224 162.567 862.97 222.138C900.897 266.661 882.989 323.28 859.755 369.749C827.525 434.208 745.882 472.323 683.206 419.44C622.491 368.212 649.701 252.179 701.036 204.6C747.835 161.226 860.745 115.935 924.061 147.017C986.314 177.578 997.72 261.139 997.72 321.52C997.72 344.724 986.793 351.839 965.567 361.272C923.253 380.079 871.846 394.219 825.848 397.225C756.494 401.758 684.477 400.084 625.331 359.226C572.658 322.841 544.958 270.94 506.073 222.723C448.44 151.258 303.172 139.949 264.049 240.553C243.041 294.572 334.398 326.061 369.276 334.966C464.299 359.227 560.319 339.91 654.561 324.735C756.181 308.372 956.835 264.539 1012.34 387.872C1016.13 396.303 1017.52 432.286 1005.61 434.932C967.558 443.388 930.642 440.931 892.492 455.101C841.545 474.024 785.445 481.055 732.02 490.177C701.956 495.309 641.202 511.475 613.639 493.1"
                fill="freeze"
        />
        <animate attributeName="opacity" from="0" to="1" begin="motion.beginEvent"
                 dur="0.01s" fill="freeze"/>
<!--        <animate attributeName="opacity" from="1" to="0" begin="motion.endEvent"-->
<!--                 dur="0.0001s" fill="freeze"/>-->
    </image>
<!--    <circle class="animated-point" r="5" fill="red">-->
<!--        <animateMotion-->
<!--                repeatCount="1"-->
<!--                dur="5s"-->
<!--                id="motion"-->
<!--                begin="indefinite"-->
<!--                path="M2.27429 355.182C2.27429 326.456 9.95025 299.718 28.6109 276.897C50.0193 250.715 76.1076 228.548 102.788 208.035C160.707 163.505 224.127 118.287 291.615 89.1581C315.57 78.8188 320.557 79.4932 343.925 79.4932C369.491 79.4932 399.669 78.9863 424.385 86.2586C448.402 93.3255 465.972 105.572 482.374 124.918C509.553 156.976 534.08 202.435 534.08 245.607C534.08 275.115 511.369 303.536 486.723 317.731C454.196 336.464 414.515 346.006 377.994 353.007C316.704 364.757 232.312 377.071 182.281 328.604C156.993 304.106 126.225 276.393 126.225 238.721C126.225 180.313 181.275 130.188 224.444 97.6148C265.816 66.3975 312.298 46.1619 360.96 29.2362C410.289 12.0781 464.851 10.5792 516.442 8.33609C569.818 6.01542 624.683 -1.11178 678.086 4.22855C705.434 6.96331 730.895 18.2222 751.297 36.7265C803.831 84.3738 821.608 145.925 822.092 215.042C822.268 240.246 823.464 258.986 807.353 279.796C777.757 318.025 741.59 347.231 700.315 372.095C651.634 401.421 597.325 422.754 540.846 430.326C498.901 435.949 452.192 438.469 413.988 424.131C354.337 397.802 272.069 347.099 247.845 287.596C237.929 257.938 270.493 226.621 268.812 206.08C267.696 190.903 245.748 180.337 238.547 165.004C226.403 137.908 231.182 116.761 249.07 90.3399C267.703 64.1094 363.252 11.9382 532.554 0.5"-->
<!--        />-->
<!--    </circle>-->
</svg>