<svg id="animated-svg-one" xmlns="http://www.w3.org/2000/svg" width="1200" height="650" viewBox="0 0 1200 650" fill="none">
    <path d="M358.859 249.508C358.859 342.733 392.379 430.785 392.379 524.368C392.379 549.075 384.909 550.635 360.721 554.536C327.714 559.86 244.685 572.413 219.194 543.735C193.774 515.138 223.757 489.412 246.382 475.951C295.938 446.469 363.995 398.962 384.185 341.873C412.087 262.976 405.786 175.304 405.786 93.0833C405.786 73.9793 423.04 127.196 432.602 143.735C463.105 196.497 490.338 251.245 519.753 304.629C527.831 319.289 633.952 515.56 629.623 517.292C612.038 524.326 576.27 518.024 558.487 517.664C452.352 515.52 341.506 470.538 241.168 438.707C198.802 425.267 122.97 399.737 111.187 346.715C105.569 321.436 228.431 317.777 241.168 316.547C327.907 308.169 410.753 304.03 496.289 286.379C525.487 280.354 802.16 215.431 801.317 245.783C800.141 288.116 767.076 341.137 751.038 379.489C744.94 394.072 735.812 428.989 722.36 439.452C702.882 454.601 733.193 391.026 742.844 368.316C761.285 324.926 785.678 285.84 813.608 248.018C829.142 226.982 845.361 194.675 866.867 178.744C880.676 168.516 850.827 280.731 848.245 289.731C846.079 297.281 816.584 393.675 838.934 362.73C858.486 335.657 885.608 301.653 911.559 280.42C914.314 278.167 920.026 274.486 921.615 280.048C921.946 281.205 922.095 293.348 923.477 291.966C942.456 272.987 967.16 216.369 1000.94 218.968C1017.47 220.239 961.303 358.289 956.252 372.04C932.184 437.56 950.692 411.626 991.634 384.331C1018.12 366.673 1018.45 377.277 1032.23 348.577C1044.43 323.15 1063.42 302.262 1081.76 281.165C1096.06 264.723 1084.81 271.943 1069.47 276.324" fill="none"/>

    <image opacity="0" id="animatedKey" class="animated-point" href="../images/harry-potter.png" width="100" height="100">
        <animateMotion
                repeatCount="1"
                dur="3s"
                id="motion"
                begin="indefinite"
                path="M358.859 249.508C358.859 342.733 392.379 430.785 392.379 524.368C392.379 549.075 384.909 550.635 360.721 554.536C327.714 559.86 244.685 572.413 219.194 543.735C193.774 515.138 223.757 489.412 246.382 475.951C295.938 446.469 363.995 398.962 384.185 341.873C412.087 262.976 405.786 175.304 405.786 93.0833C405.786 73.9793 423.04 127.196 432.602 143.735C463.105 196.497 490.338 251.245 519.753 304.629C527.831 319.289 633.952 515.56 629.623 517.292C612.038 524.326 576.27 518.024 558.487 517.664C452.352 515.52 341.506 470.538 241.168 438.707C198.802 425.267 122.97 399.737 111.187 346.715C105.569 321.436 228.431 317.777 241.168 316.547C327.907 308.169 410.753 304.03 496.289 286.379C525.487 280.354 802.16 215.431 801.317 245.783C800.141 288.116 767.076 341.137 751.038 379.489C744.94 394.072 735.812 428.989 722.36 439.452C702.882 454.601 733.193 391.026 742.844 368.316C761.285 324.926 785.678 285.84 813.608 248.018C829.142 226.982 845.361 194.675 866.867 178.744C880.676 168.516 850.827 280.731 848.245 289.731C846.079 297.281 816.584 393.675 838.934 362.73C858.486 335.657 885.608 301.653 911.559 280.42C914.314 278.167 920.026 274.486 921.615 280.048C921.946 281.205 922.095 293.348 923.477 291.966C942.456 272.987 967.16 216.369 1000.94 218.968C1017.47 220.239 961.303 358.289 956.252 372.04C932.184 437.56 950.692 411.626 991.634 384.331C1018.12 366.673 1018.45 377.277 1032.23 348.577C1044.43 323.15 1063.42 302.262 1081.76 281.165C1096.06 264.723 1084.81 271.943 1069.47 276.324"
                fill="freeze"
        />
        <animate attributeName="opacity" from="0" to="1" begin="motion.beginEvent"
                 dur="0.01s" fill="freeze"/>
    </image>
</svg>